<?xml version="1.0" encoding="UTF-8" standalone="no"?>
<svg xmlns="http://www.w3.org/2000/svg" viewBox="0 0 500 500" width="500" height="500">
  <!-- Background Circle -->
  <circle cx="250" cy="250" r="240" fill="#0e1b2d" />
  <circle cx="250" cy="250" r="225" fill="#14243c" />

  <!-- Gradient Background for Inner Circle -->
  <defs>
    <linearGradient id="innerGradient" x1="0%" y1="0%" x2="100%" y2="100%">
      <stop offset="0%" stop-color="#1a2b49" />
      <stop offset="100%" stop-color="#263656" />
    </linearGradient>
  </defs>
  <circle cx="250" cy="250" r="210" fill="url(#innerGradient)" />

  <!-- Y Symbol -->
  <path d="M190,120 L250,210 L310,120 L345,120 L265,235 L265,380 L235,380 L235,235 L155,120 L190,120 Z"
        fill="#ffffff" />

  <!-- Upward Arrow Accent -->
  <path d="M360,280 L360,380 L330,380 L330,280 L305,305 L285,285 L345,225 L405,285 L385,305 L360,280 Z"
        fill="#38ecaf" />

  <!-- + Symbol -->
  <path d="M170,310 L170,340 L140,340 L140,370 L110,370 L110,340 L80,340 L80,310 L110,310 L110,280 L140,280 L140,310 Z"
        fill="#38ecaf" />

  <!-- Subtle Circle Accents -->
  <circle cx="145" cy="145" r="12" fill="#38ecaf" opacity="0.7" />
  <circle cx="355" cy="145" r="12" fill="#38ecaf" opacity="0.7" />

  <!-- Glow Effects -->
  <circle cx="250" cy="250" r="240" fill="none" stroke="#38ecaf" stroke-width="2" opacity="0.4" />
  <circle cx="250" cy="250" r="200" fill="none" stroke="#38ecaf" stroke-width="1" opacity="0.2" />
</svg>
