<?xml version="1.0" encoding="UTF-8" standalone="no" ?>
<svg xmlns="http://www.w3.org/2000/svg" width="300" height="100" viewBox="0 0 300 100">
  <g>
    <!-- Triangle Logo -->
    <path d="M45.66,30.379L10.101,115.43L27.953,102.5L45.664,30.379z M30.07,102.149h36.121L49.589,22.7z M68.218,102.149h21.68L52.226,25.688L68.214,102.149z M68.628,104.13L71.2374,116.599L88.4364,104.13z M69.35847,117.302L66.60847,104.13H29.12047L10.89047,117.302z" fill="#ffffff" transform="scale(0.5) translate(10, -10)"/>

    <!-- YieldMax Text -->
    <g transform="translate(90, 60)" fill="#ffffff">
      <!-- YIELD -->
      <path d="M-91.99-21.41Q-91.32-22.25-90.36-22.25L-90.36-22.25Q-89.57-22.25-88.95-21.63Q-88.33-21.01-88.33-20.11L-88.33-20.11Q-88.33-19.26-88.84-18.70L-88.84-18.70L-102.53-1.40L-102.53 15.62Q-102.53 16.74-103.18 17.36Q-103.82 17.98-104.84 17.98L-104.84 17.98Q-105.85 17.98-106.50 17.36Q-107.15 16.74-107.15 15.62L-107.15 15.62L-107.15-1.46L-120.84-18.70Q-121.41-19.32-121.41-20.11L-121.41-20.11Q-121.41-21.01-120.76-21.63Q-120.11-22.25-119.26-22.25L-119.26-22.25Q-118.31-22.25-117.63-21.41L-117.63-21.41L-104.78-5.01L-91.99-21.41Z"/>
      <path d="M-81.34 17.98Q-82.36 17.98-83.00 17.39Q-83.65 16.80-83.65 15.73L-83.65 15.73L-83.65-8.05Q-83.65-9.12-83.00-9.71Q-82.36-10.30-81.34-10.30L-81.34-10.30Q-80.33-10.30-79.71-9.71Q-79.09-9.12-79.09-8.05L-79.09-8.05L-79.09 15.73Q-79.09 16.86-79.71 17.42Q-80.33 17.98-81.34 17.98L-81.34 17.98ZM-81.34-16.22Q-82.69-16.22-83.54-17.01Q-84.38-17.80-84.38-19.09L-84.38-19.09Q-84.38-20.33-83.54-21.12Q-82.69-21.91-81.34-21.91L-81.34-21.91Q-79.99-21.91-79.14-21.12Q-78.30-20.33-78.30-19.09L-78.30-19.09Q-78.30-17.80-79.14-17.01Q-79.99-16.22-81.34-16.22L-81.34-16.22Z"/>
      <path d="M-49.33 11.33Q-48.71 11.33-48.26 11.84Q-47.81 12.35-47.81 13.14L-47.81 13.14Q-47.81 14.55-49.79 15.73L-49.79 15.73Q-51.81 16.91-54.07 17.50Q-56.32 18.10-58.46 18.10L-58.46 18.10Q-64.83 18.10-68.52 14.32Q-72.21 10.55-72.21 3.90L-72.21 3.90Q-72.21-0.33-70.58-3.57Q-68.94-6.81-65.99-8.61Q-63.03-10.42-59.25-10.42L-59.25-10.42Q-53.90-10.42-50.74-6.92Q-47.59-3.43-47.59 2.54L-47.59 2.54Q-47.59 3.67-48.04 4.18Q-48.49 4.68-49.50 4.68L-49.50 4.68L-67.65 4.68Q-67.14 14.38-58.46 14.38L-58.46 14.38Q-56.27 14.38-54.69 13.79Q-53.11 13.19-51.31 12.18L-51.31 12.18Q-49.84 11.33-49.33 11.33L-49.33 11.33ZM-59.20-6.87Q-62.80-6.87-64.97-4.61Q-67.14-2.36-67.54 1.75L-67.54 1.75L-51.59 1.75Q-51.70-2.42-53.67-4.64Q-55.65-6.87-59.20-6.87L-59.20-6.87Z"/>
      <path d="M-38.57 17.98Q-39.59 17.98-40.23 17.39Q-40.88 16.80-40.88 15.73L-40.88 15.73L-40.88-20.05Q-40.88-21.12-40.23-21.72Q-39.59-22.31-38.57-22.31L-38.57-22.31Q-37.61-22.31-36.97-21.72Q-36.32-21.12-36.32-20.05L-36.32-20.05L-36.32 15.73Q-36.32 16.80-36.97 17.39Q-37.61 17.98-38.57 17.98L-38.57 17.98Z"/>
      <path d="M-5.78-22.31Q-4.71-22.31-4.09-21.69Q-3.47-21.07-3.47-20.11L-3.47-20.11L-3.47 15.73Q-3.47 16.74-4.09 17.36Q-4.71 17.98-5.78 17.98L-5.78 17.98Q-6.85 17.98-7.44 17.36Q-8.03 16.74-8.03 15.73L-8.03 15.73L-8.03 12.69Q-9.27 15.28-11.66 16.69Q-14.06 18.10-17.27 18.10L-17.27 18.10Q-20.88 18.10-23.64 16.29Q-26.40 14.49-27.92 11.25Q-29.44 8.01-29.44 3.73L-29.44 3.73Q-29.44-0.50-27.92-3.71Q-26.40-6.92-23.64-8.67Q-20.88-10.42-17.27-10.42L-17.27-10.42Q-14.06-10.42-11.66-9.01Q-9.27-7.60-8.03-5.01L-8.03-5.01L-8.03-20.11Q-8.03-21.12-7.44-21.72Q-6.85-22.31-5.78-22.31L-5.78-22.31ZM-16.37 14.32Q-12.37 14.32-10.20 11.59Q-8.03 8.85-8.03 3.84L-8.03 3.84Q-8.03-1.18-10.20-3.88Q-12.37-6.59-16.37-6.59L-16.37-6.59Q-20.37-6.59-22.60-3.88Q-24.82-1.18-24.82 3.73L-24.82 3.73Q-24.82 8.74-22.60 11.53Q-20.37 14.32-16.37 14.32L-16.37 14.32Z"/>

      <!-- MAX -->
      <path d="M55.48-22.31Q56.55-22.31 57.14-21.66Q57.73-21.01 57.73-19.94L57.73-19.94L57.73 15.73Q57.73 16.74 57.17 17.36Q56.60 17.98 55.59 17.98L55.59 17.98Q54.57 17.98 54.07 17.36Q53.56 16.74 53.56 15.73L53.56 15.73L53.56-13.07L41.33 10.38Q40.54 12.01 39.02 12.01L39.02 12.01Q37.56 12.01 36.71 10.38L36.71 10.38L24.43-12.78L24.43 15.73Q24.43 16.74 23.89 17.36Q23.36 17.98 22.34 17.98L22.34 17.98Q21.33 17.98 20.76 17.36Q20.20 16.74 20.20 15.73L20.20 15.73L20.20-19.94Q20.20-21.01 20.82-21.66Q21.44-22.31 22.51-22.31L22.51-22.31Q23.92-22.31 24.77-20.67L24.77-20.67L39.08 6.77L53.22-20.67Q53.67-21.57 54.21-21.94Q54.74-22.31 55.48-22.31L55.48-22.31Z"/>
      <path d="M78.13-10.42Q88.44-10.42 88.44 0.40L88.44 0.40L88.44 15.73Q88.44 16.74 87.85 17.36Q87.26 17.98 86.24 17.98L86.24 17.98Q85.23 17.98 84.61 17.36Q83.99 16.74 83.99 15.73L83.99 15.73L83.99 13.02Q82.92 15.45 80.72 16.77Q78.52 18.10 75.65 18.10L75.65 18.10Q73.00 18.10 70.78 17.03Q68.55 15.95 67.25 14.04Q65.96 12.12 65.96 9.81L65.96 9.81Q65.96 6.71 67.54 4.99Q69.11 3.28 72.72 2.52Q76.33 1.75 82.75 1.75L82.75 1.75L83.99 1.75L83.99-0.10Q83.99-3.49 82.61-5.06Q81.23-6.64 78.13-6.64L78.13-6.64Q74.30-6.64 70.35-4.56L70.35-4.56Q68.83-3.60 68.21-3.60L68.21-3.60Q67.54-3.60 67.08-4.11Q66.63-4.61 66.63-5.40L66.63-5.40Q66.63-6.19 67.11-6.78Q67.59-7.37 68.66-7.99L68.66-7.99Q70.63-9.12 73.14-9.77Q75.65-10.42 78.13-10.42L78.13-10.42ZM76.27 14.49Q79.65 14.49 81.82 12.21Q83.99 9.93 83.99 6.32L83.99 6.32L83.99 4.68L82.98 4.68Q78.02 4.68 75.42 5.11Q72.83 5.53 71.73 6.52Q70.63 7.50 70.63 9.42L70.63 9.42Q70.63 11.62 72.24 13.05Q73.85 14.49 76.27 14.49L76.27 14.49Z"/>
      <path d="M119.32 14.21Q120.00 14.88 120.00 15.84L120.00 15.84Q120.00 16.69 119.38 17.31Q118.76 17.93 117.91 17.93L117.91 17.93Q117.01 17.93 116.28 17.14L116.28 17.14L107.15 6.71L98.08 17.14Q97.34 17.93 96.44 17.93L96.44 17.93Q95.60 17.93 94.95 17.31Q94.30 16.69 94.30 15.79L94.30 15.79Q94.30 14.94 94.98 14.21L94.98 14.21L104.33 3.67L95.37-6.53Q94.70-7.32 94.70-8.11L94.70-8.11Q94.70-9.01 95.34-9.63Q95.99-10.25 96.78-10.25L96.78-10.25Q97.68-10.25 98.42-9.46L98.42-9.46L107.15 0.57L115.88-9.46Q116.62-10.25 117.52-10.25L117.52-10.25Q118.36-10.25 118.98-9.63Q119.60-9.01 119.60-8.16L119.60-8.16Q119.60-7.20 118.93-6.53L118.93-6.53L109.97 3.67L119.32 14.21Z"/>
    </g>
  </g>
</svg>
