<svg xmlns="http://www.w3.org/2000/svg" xmlns:xlink="http://www.w3.org/1999/xlink" data-v-0dd9719b="" version="1.0" width="100%" height="100%" viewBox="0 0 340.000000 250.000000" preserveAspectRatio="xMidYMid meet" color-interpolation-filters="sRGB" style="margin: auto;">
  <g data-v-0dd9719b="" class="iconmbgsvg" transform="translate(79.97500610351562,50.86735534667969)">
    <g fill="#000" hollow-target="textRect">
      <g transform="translate(15.024993896484375,0)" mask="url(#33dcafd2-7541-4ff2-9fd8-86dac6c93044)">
        <g>
          <rect fill="#ffffff" fill-opacity="0" stroke-width="2" x="0" y="0" width="150" height="148.26529603637442" class="image-rect"/>
          <svg filter="url(#colors2574053096)" x="0" y="0" width="150" height="148.26529603637442" filtersec="colorsf8745297702" class="image-svg-svg primary" style="overflow: visible;">
            <svg xmlns="http://www.w3.org/2000/svg" xmlns:xlink="http://www.w3.org/1999/xlink" version="1.1" x="0px" y="0px" viewBox="0.0001048557460308075 0.13899999856948853 23.999588012695312 23.722000122070312" xml:space="preserve">
              <g>
                <g>
                  <path d="M0.045,23.154c-0.07,0.155-0.058,0.335,0.035,0.478c0.092,0.143,0.25,0.229,0.42,0.229h15.605L10.474,0.31L0.045,23.154z M23.894,16.053L11.461,0.139l5.59,23.377l6.802-6.802C24.032,16.536,24.049,16.252,23.894,16.053z"/>
                </g>
              </g>
            </svg>
          </svg>
        </g>
      </g>
    </g>
    <g transform="translate(0,58.35264301300049)">
      <g data-gra="path-name" fill-rule="" class="tp-name">
        <g transform="scale(1)">
          <g>
            <path fill="black" stroke="white" d="M18.62-27.78L24.83-27.78 15.44-9.67 15.44 0 9.87 0 9.87-9.67 0.44-27.78 6.73-27.78 12.7-15.08 18.62-27.78ZM30.88-24.67Q29.41-24.67 28.43-25.61 27.46-26.54 27.46-27.94L27.46-27.94Q27.46-29.33 28.43-30.27 29.41-31.2 30.88-31.2L30.88-31.2Q32.35-31.2 33.33-30.27 34.3-29.33 34.3-27.94L34.3-27.94Q34.3-26.54 33.33-25.61 32.35-24.67 30.88-24.67L30.88-24.67ZM28.06-22.05L33.63-22.05 33.63 0 28.06 0 28.06-22.05ZM59.62-11.5Q59.62-10.31 59.46-9.35L59.46-9.35 43.34-9.35Q43.54-6.96 45.01-5.61 46.48-4.26 48.63-4.26L48.63-4.26Q51.74-4.26 53.05-6.92L53.05-6.92 59.06-6.92Q58.1-3.74 55.4-1.69 52.69 0.36 48.75 0.36L48.75 0.36Q45.57 0.36 43.04-1.05 40.51-2.47 39.1-5.05 37.69-7.64 37.69-11.02L37.69-11.02Q37.69-14.45 39.08-17.03 40.47-19.62 42.98-21.01 45.49-22.41 48.75-22.41L48.75-22.41Q51.89-22.41 54.38-21.05 56.87-19.7 58.24-17.21 59.62-14.72 59.62-11.5L59.62-11.5ZM43.38-13.09L53.84-13.09Q53.8-15.24 52.29-16.54 50.78-17.83 48.59-17.83L48.59-17.83Q46.52-17.83 45.11-16.58 43.7-15.32 43.38-13.09L43.38-13.09ZM63.67-29.45L69.25-29.45 69.25 0 63.67 0 63.67-29.45ZM73.31-11.1Q73.31-14.45 74.64-17.03 75.97-19.62 78.28-21.01 80.59-22.41 83.41-22.41L83.41-22.41Q85.56-22.41 87.51-21.47 89.46-20.54 90.62-18.98L90.62-18.98 90.62-29.45 96.27-29.45 96.27 0 90.62 0 90.62-3.26Q89.58-1.63 87.71-0.64 85.84 0.36 83.37 0.36L83.37 0.36Q80.59 0.36 78.28-1.07 75.97-2.51 74.64-5.11 73.31-7.72 73.31-11.1L73.31-11.1ZM90.66-11.02Q90.66-13.05 89.86-14.51 89.06-15.96 87.71-16.73 86.36-17.51 84.81-17.51L84.81-17.51Q83.25-17.51 81.94-16.75 80.63-16 79.81-14.55 79-13.09 79-11.1L79-11.1Q79-9.11 79.81-7.62 80.63-6.13 81.96-5.33 83.29-4.54 84.81-4.54L84.81-4.54Q86.36-4.54 87.71-5.31 89.06-6.09 89.86-7.54 90.66-8.99 90.66-11.02L90.66-11.02Z" transform="translate(-0.4399999976158142, 31.200000762939453)" fill="#ffffff"/>
          </g>
          <g data-gra="path-name-1" fill="#ffffff" transform="translate(98.82999420166016,0)">
            <g transform="scale(1)">
              <path d="M26.74-27.78L33.03-27.78 33.03 0 27.46 0 27.46-18.07 20.02 0 15.8 0 8.32-18.07 8.32 0 2.75 0 2.75-27.78 9.07-27.78 17.91-7.12 26.74-27.78ZM37.09-11.1Q37.09-14.45 38.42-17.03 39.76-19.62 42.05-21.01 44.33-22.41 47.16-22.41L47.16-22.41Q49.63-22.41 51.48-21.41 53.33-20.42 54.44-18.9L54.44-18.9 54.44-22.05 60.05-22.05 60.05 0 54.44 0 54.44-3.22Q53.37-1.67 51.48-0.66 49.59 0.36 47.12 0.36L47.12 0.36Q44.33 0.36 42.05-1.07 39.76-2.51 38.42-5.11 37.09-7.72 37.09-11.1L37.09-11.1ZM54.44-11.02Q54.44-13.05 53.65-14.51 52.85-15.96 51.5-16.73 50.14-17.51 48.59-17.51L48.59-17.51Q47.04-17.51 45.73-16.75 44.41-16 43.6-14.55 42.78-13.09 42.78-11.1L42.78-11.1Q42.78-9.11 43.6-7.62 44.41-6.13 45.75-5.33 47.08-4.54 48.59-4.54L48.59-4.54Q50.14-4.54 51.5-5.31 52.85-6.09 53.65-7.54 54.44-8.99 54.44-11.02L54.44-11.02ZM83.97 0L77.68 0 73.15-6.85 69.13 0 63.16 0 70.36-11.06 63.08-22.05 69.37-22.05 73.86-15.24 77.92-22.05 83.89-22.05 76.65-11.06 83.97 0Z" transform="translate(-2.75, 31.200000762939453)" fill="#ffffff"/>
            </g>
          </g>
        </g>
      </g>
    </g>
  </g>
  <mask id="33dcafd2-7541-4ff2-9fd8-86dac6c93044">
    <g fill="white">
      <g>
        <rect fill-opacity="1" stroke-width="2" x="0" y="0" width="150" height="148.26529603637442" class="image-rect"/>
        <svg x="0" y="0" width="150" height="148.26529603637442" class="image-svg-svg primary" style="overflow: visible;" filter="url(#colorsf8745297702)">
          <svg xmlns="http://www.w3.org/2000/svg" xmlns:xlink="http://www.w3.org/1999/xlink" version="1.1" x="0px" y="0px" viewBox="0.0001048557460308075 0.13899999856948853 23.999588012695312 23.722000122070312" xml:space="preserve">
            <g>
              <g>
                <path d="M0.045,23.154c-0.07,0.155-0.058,0.335,0.035,0.478c0.092,0.143,0.25,0.229,0.42,0.229h15.605L10.474,0.31L0.045,23.154z M23.894,16.053L11.461,0.139l5.59,23.377l6.802-6.802C24.032,16.536,24.049,16.252,23.894,16.053z" fill="#ffffff"/>
              </g>
            </g>
          </svg>
        </svg>
      </g>
    </g>
  </mask>
  <defs v-gra="od"/>
<script xmlns=""/></svg>